name C:\Users\u0101727\Documents\MyRepositories\paper-ad\predictivesimulations_2d/Results/PredSim_2D/IK_c6.mot
datacolumns 11
datarows 47
range 1.27595807 1.71726687
endheader
time	pelvis_tilt	pelvis_tx	pelvis_ty	hip_flexion_l	hip_flexion_r	knee_angle_l	knee_angle_r	ankle_angle_l	ankle_angle_r	lumbar_extension	
          1.27595807	        -15.09586424	          1.69369530	          0.90065034	         33.18759600	         10.36196088	        -37.56403288	         -7.28897176	         15.70398003	         11.30967643	          9.41177267	
          1.28555174	        -15.09516481	          1.70568330	          0.89979082	         34.15615038	          9.58625720	        -36.09131385	         -7.33686640	         15.98950366	         11.32029565	          9.37192757	
          1.29514541	        -15.09553918	          1.71772688	          0.89887345	         35.06358043	          8.82820968	        -34.50196158	         -7.42051021	         16.19412473	         11.31861105	          9.33533770	
          1.30473908	        -15.09737799	          1.72983252	          0.89789709	         35.90641876	          8.08677176	        -32.80372117	         -7.53884650	         16.32696358	         11.30824239	          9.30231082	
          1.31433275	        -15.10100519	          1.74200832	          0.89686059	         36.68007022	          7.36159250	        -31.00803068	         -7.69215487	         16.39680344	         11.29001959	          9.27323398	
          1.32392642	        -15.10649153	          1.75426627	          0.89576661	         37.37781287	          6.65356562	        -29.14109195	         -7.88409255	         16.41178904	         11.26233388	          9.24869708	
          1.33352009	        -15.11386696	          1.76662460	          0.89462752	         37.98668450	          5.96471788	        -27.23714233	         -8.12088564	         16.37920818	         11.21915356	          9.23000289	
          1.34311376	        -15.12315527	          1.77910479	          0.89346501	         38.49089365	          5.29820167	        -25.32838399	         -8.40964803	         16.30545678	         11.14807521	          9.21887263	
          1.35270743	        -15.13403854	          1.79172562	          0.89230160	         38.88102266	          4.65842118	        -23.44264262	         -8.75884320	         16.19592512	         11.03282382	          9.21649253	
          1.36230110	        -15.14571928	          1.80450166	          0.89115527	         39.15695343	          4.05063536	        -21.60178976	         -9.17832040	         16.05473903	         10.85687466	          9.22326684	
          1.37189476	        -15.15698379	          1.81744577	          0.89004032	         39.32557261	          3.48013606	        -19.82743238	         -9.67841226	         15.88449716	         10.60594758	          9.23912314	
          1.38148843	        -15.16661202	          1.83057182	          0.88896891	         39.39409776	          2.95181154	        -18.13434869	        -10.26880382	         15.68639124	         10.26718765	          9.26415302	
          1.39108210	        -15.17346031	          1.84389426	          0.88795023	         39.36935677	          2.47009453	        -16.53432291	        -10.95806189	         15.46031501	          9.82844407	          9.29859441	
          1.40067577	        -15.17627361	          1.85742727	          0.88698954	         39.25895044	          2.03959936	        -15.04440324	        -11.75518178	         15.20498904	          9.27886622	          9.34258482	
          1.41026944	        -15.17378904	          1.87118528	          0.88608792	         39.06791998	          1.66584400	        -13.67912720	        -12.67044871	         14.91839892	          8.60747735	          9.39641609	
          1.41986311	        -15.16460260	          1.88518186	          0.88524107	         38.80103855	          1.35473450	        -12.45835466	        -13.71478545	         14.59766336	          7.80383871	          9.46034107	
          1.42945678	        -15.14715641	          1.89942877	          0.88443783	         38.46367020	          1.11193356	        -11.41088677	        -14.89840924	         14.23898548	          6.86044809	          9.53450916	
          1.43905045	        -15.12000860	          1.91393710	          0.88365911	         38.05615245	          0.94223485	        -10.56760832	        -16.23061230	         13.83800677	          5.77730857	          9.61950872	
          1.44864412	        -15.08196704	          1.92871512	          0.88287338	         37.57143269	          0.84855181	         -9.96217840	        -17.72435693	         13.38974051	          4.57677105	          9.71640109	
          1.45823779	        -15.03287623	          1.94375656	          0.88203682	         36.99151834	          0.83361165	         -9.64275534	        -19.38559734	         12.88938354	          3.27239094	          9.82633188	
          1.46783146	        -14.97529263	          1.95904439	          0.88117278	         36.24834388	          0.90465274	         -9.72988423	        -21.21120584	         12.33487141	          1.84413126	          9.95327367	
          1.47742513	        -14.91742783	          1.97439274	          0.88040818	         35.38506859	          1.06631031	        -10.04389323	        -23.18259648	         11.76553121	          0.37735778	         10.08779952	
          1.48701880	        -14.87025625	          1.98946091	          0.87997244	         34.52688377	          1.34543699	        -10.32386344	        -25.20735906	         11.21529417	         -0.90633258	         10.20666630	
          1.49661247	        -14.84234053	          2.00400181	          0.88012716	         33.71103335	          1.77029022	        -10.58192079	        -27.14528485	         10.68404400	         -1.90891438	         10.29595722	
          1.50620614	        -14.83602547	          2.01795243	          0.88102806	         32.93997489	          2.33678260	        -10.81293429	        -28.93372523	         10.18644068	         -2.65976613	         10.35453117	
          1.51579981	        -14.84662303	          2.03139602	          0.88263442	         32.19518067	          3.02814275	        -11.00490757	        -30.59338748	          9.73877098	         -3.16832115	         10.38853094	
          1.52539348	        -14.86754159	          2.04445677	          0.88473651	         31.45553659	          3.82382899	        -11.14892281	        -32.15338369	          9.35252724	         -3.44732352	         10.40498484	
          1.53498715	        -14.89341529	          2.05724218	          0.88710181	         30.70424068	          4.70828131	        -11.23817459	        -33.63130565	          9.03399178	         -3.51233699	         10.40920755	
          1.54458082	        -14.92080479	          2.06982651	          0.88954763	         29.93184607	          5.66946895	        -11.27074659	        -35.03562232	          8.78477965	         -3.37838683	         10.40439539	
          1.55417449	        -14.94781672	          2.08225672	          0.89195037	         29.13382756	          6.69838138	        -11.24707844	        -36.36765285	          8.60385899	         -3.06178230	         10.39230703	
          1.56376816	        -14.97348915	          2.09456288	          0.89423081	         28.30863787	          7.78761580	        -11.16917371	        -37.62428778	          8.48859915	         -2.57926833	         10.37395137	
          1.57336183	        -14.99733318	          2.10676530	          0.89633855	         27.45665043	          8.93099282	        -11.04051328	        -38.80064669	          8.43526253	         -1.94770679	         10.34994354	
          1.58295550	        -15.01908348	          2.11887905	          0.89824115	         26.57951682	         10.12296650	        -10.86593976	        -39.89063690	          8.43930102	         -1.18405020	         10.32073605	
          1.59254917	        -15.03856969	          2.13091654	          0.89991764	         25.67983170	         11.35817917	        -10.65148884	        -40.88749182	          8.49558074	         -0.30547789	         10.28673689	
          1.60214284	        -15.05566614	          2.14288867	          0.90135538	         24.76089864	         12.63121132	        -10.40417458	        -41.78402585	          8.59853111	          0.67061844	         10.24835894	
          1.61173651	        -15.07028508	          2.15480496	          0.90254947	         23.82667946	         13.93667707	        -10.13199749	        -42.57263836	          8.74233685	          1.72667559	         10.20599591	
          1.62133018	        -15.08241196	          2.16667300	          0.90350318	         22.88162006	         15.26958317	         -9.84278709	        -43.24517117	          8.92113277	          2.84502412	         10.15996670	
          1.63092385	        -15.09217008	          2.17850011	          0.90422709	         21.92962346	         16.62395815	         -9.54360750	        -43.79409101	          9.12844844	          4.00784905	         10.11074710	
          1.64051752	        -15.09972136	          2.19029255	          0.90473812	         20.97484616	         17.99396670	         -9.24199627	        -44.21173223	          9.35660814	          5.19730209	         10.05876637	
          1.65011119	        -15.10520552	          2.20205586	          0.90505699	         20.02185863	         19.37410943	         -8.94581833	        -44.49031780	          9.59754102	          6.39556384	         10.00436595	
          1.65970486	        -15.10876897	          2.21379604	          0.90520510	         19.07546339	         20.75791906	         -8.66343616	        -44.62287333	          9.84329590	          7.58483969	          9.94792440	
          1.66929852	        -15.11063063	          2.22552016	          0.90520267	         18.13892673	         22.13845330	         -8.40053469	        -44.60377529	         10.08652172	          8.74745267	          9.88997521	
          1.67889219	        -15.11110639	          2.23723654	          0.90506782	         17.21306825	         23.50883225	         -8.15841135	        -44.42895424	         10.32055719	          9.86603187	          9.83125821	
          1.68848586	        -15.11047870	          2.24895400	          0.90481604	         16.29928073	         24.86115895	         -7.93983198	        -44.09645415	         10.53860444	         10.92383691	          9.77251139	
          1.69807953	        -15.10899065	          2.26068076	          0.90446048	         15.39971621	         26.18745124	         -7.74844140	        -43.60533949	         10.73456664	         11.90542401	          9.71435604	
          1.70767320	        -15.10688346	          2.27242583	          0.90401184	         14.51596159	         27.47896092	         -7.58725543	        -42.95857259	         10.90378834	         12.79740000	          9.65752111	
          1.71726687	        -15.10441467	          2.28419774	          0.90347928	         13.64894437	         28.72762869	         -7.45832390	        -42.16074350	         11.04328773	         13.58953243	          9.60270469	
